<mxfile host="app.diagrams.net" modified="2024-03-24T12:37:40.041Z" agent="Mozilla/5.0 (Windows NT 10.0; Win64; x64) AppleWebKit/537.36 (KHTML, like Gecko) Chrome/123.0.0.0 Safari/537.36" etag="J7hRfwmG25UET1Pq3u00" version="24.1.0" type="github">
  <diagram name="Pagina-1" id="VKP-E7FmXOzmTEbUWqwM">
    <mxGraphModel dx="794" dy="420" grid="1" gridSize="10" guides="1" tooltips="1" connect="1" arrows="1" fold="1" page="1" pageScale="1" pageWidth="827" pageHeight="1169" math="0" shadow="0">
      <root>
        <mxCell id="0" />
        <mxCell id="1" parent="0" />
        <mxCell id="PF51RpuPRDNgdh2RP4am-1" value="&lt;font style=&quot;font-size: 18px;&quot;&gt;Matemathic_Function\&lt;/font&gt;" style="text;html=1;align=center;verticalAlign=middle;resizable=0;points=[];autosize=1;strokeColor=none;fillColor=none;" vertex="1" parent="1">
          <mxGeometry x="70" y="93" width="200" height="40" as="geometry" />
        </mxCell>
        <mxCell id="PF51RpuPRDNgdh2RP4am-2" value="" style="endArrow=none;html=1;rounded=0;entryX=0.12;entryY=1.208;entryDx=0;entryDy=0;entryPerimeter=0;" edge="1" parent="1" target="PF51RpuPRDNgdh2RP4am-1">
          <mxGeometry width="50" height="50" relative="1" as="geometry">
            <mxPoint x="94" y="180" as="sourcePoint" />
            <mxPoint x="430" y="190" as="targetPoint" />
          </mxGeometry>
        </mxCell>
        <mxCell id="PF51RpuPRDNgdh2RP4am-3" value="" style="endArrow=none;html=1;rounded=0;" edge="1" parent="1">
          <mxGeometry width="50" height="50" relative="1" as="geometry">
            <mxPoint x="95" y="160" as="sourcePoint" />
            <mxPoint x="200" y="160" as="targetPoint" />
          </mxGeometry>
        </mxCell>
        <mxCell id="PF51RpuPRDNgdh2RP4am-4" value="&lt;font size=&quot;3&quot;&gt;src\&lt;/font&gt;" style="text;html=1;align=center;verticalAlign=middle;resizable=0;points=[];autosize=1;strokeColor=none;fillColor=none;" vertex="1" parent="1">
          <mxGeometry x="200" y="140" width="50" height="30" as="geometry" />
        </mxCell>
        <mxCell id="PF51RpuPRDNgdh2RP4am-5" value="" style="endArrow=none;html=1;rounded=0;entryX=0.12;entryY=1.208;entryDx=0;entryDy=0;entryPerimeter=0;" edge="1" parent="1">
          <mxGeometry width="50" height="50" relative="1" as="geometry">
            <mxPoint x="94" y="250" as="sourcePoint" />
            <mxPoint x="94" y="211" as="targetPoint" />
          </mxGeometry>
        </mxCell>
        <mxCell id="PF51RpuPRDNgdh2RP4am-6" value="" style="endArrow=none;html=1;rounded=0;" edge="1" parent="1">
          <mxGeometry width="50" height="50" relative="1" as="geometry">
            <mxPoint x="95" y="230" as="sourcePoint" />
            <mxPoint x="200" y="230" as="targetPoint" />
          </mxGeometry>
        </mxCell>
        <mxCell id="PF51RpuPRDNgdh2RP4am-7" value="&lt;font size=&quot;3&quot;&gt;test\&lt;/font&gt;" style="text;html=1;align=center;verticalAlign=middle;resizable=0;points=[];autosize=1;strokeColor=none;fillColor=none;" vertex="1" parent="1">
          <mxGeometry x="200" y="210" width="50" height="30" as="geometry" />
        </mxCell>
        <mxCell id="PF51RpuPRDNgdh2RP4am-8" value="" style="endArrow=none;html=1;rounded=0;entryX=0.493;entryY=1.178;entryDx=0;entryDy=0;entryPerimeter=0;" edge="1" parent="1" target="PF51RpuPRDNgdh2RP4am-4">
          <mxGeometry width="50" height="50" relative="1" as="geometry">
            <mxPoint x="270" y="200" as="sourcePoint" />
            <mxPoint x="430" y="190" as="targetPoint" />
            <Array as="points">
              <mxPoint x="225" y="200" />
            </Array>
          </mxGeometry>
        </mxCell>
        <mxCell id="PF51RpuPRDNgdh2RP4am-9" value="" style="endArrow=none;html=1;rounded=0;entryX=0.493;entryY=1.178;entryDx=0;entryDy=0;entryPerimeter=0;" edge="1" parent="1">
          <mxGeometry width="50" height="50" relative="1" as="geometry">
            <mxPoint x="270" y="265" as="sourcePoint" />
            <mxPoint x="225" y="240" as="targetPoint" />
            <Array as="points">
              <mxPoint x="250" y="265" />
              <mxPoint x="225" y="265" />
            </Array>
          </mxGeometry>
        </mxCell>
        <mxCell id="PF51RpuPRDNgdh2RP4am-10" value="&lt;font style=&quot;font-size: 16px;&quot;&gt;matemathic_function\&lt;/font&gt;" style="text;html=1;align=center;verticalAlign=middle;resizable=0;points=[];autosize=1;strokeColor=none;fillColor=none;" vertex="1" parent="1">
          <mxGeometry x="270" y="180" width="180" height="30" as="geometry" />
        </mxCell>
        <mxCell id="PF51RpuPRDNgdh2RP4am-11" value="&lt;font style=&quot;font-size: 16px;&quot;&gt;matemathic_function_tests\&lt;/font&gt;" style="text;html=1;align=center;verticalAlign=middle;resizable=0;points=[];autosize=1;strokeColor=none;fillColor=none;" vertex="1" parent="1">
          <mxGeometry x="270" y="250" width="220" height="30" as="geometry" />
        </mxCell>
      </root>
    </mxGraphModel>
  </diagram>
</mxfile>
